# xmcd CD database file
#
# Track frame offsets:
#	150
#	3550
#	24000
#	38850
#	58650
#	76800
#	97800
#	113400
#	134250
#	155925
#
# Disc length: 2315 seconds
#
# Revision: 0
# Processed by: cddbd v1.5.1PL0 Copyright (c) Steve Scherf et al.
# Submitted via: CDex 1.51
#
DISCID=6c09090a
DTITLE=Glaser_Jamie - The dream
DYEAR=1900
DGENRE=Jazz
TTITLE0=The dream
TTITLE1=Loneley for you
TTITLE2=Get the wood
TTITLE3=Sunshine of your love
TTITLE4=Bora bora
TTITLE5=Captured
TTITLE6=Running free
TTITLE7=It´ll be different
TTITLE8=Scenes from a childhood
TTITLE9=If we knew then
EXTD=
EXTT0=
EXTT1=
EXTT2=
EXTT3=
EXTT4=
EXTT5=
EXTT6=
EXTT7=
EXTT8=
EXTT9=
PLAYORDER=
